<svg width="44" height="32" viewBox="0 0 44 32" fill="none" xmlns="http://www.w3.org/2000/svg">
<g clip-path="url(#clip0)">
<path fill-rule="evenodd" clip-rule="evenodd" d="M29.5598 4.10256C28.9346 4.10256 28.4237 4.60692 28.4237 5.22418V10.629L27.9738 10.4333C27.9128 10.4107 27.8518 10.3881 27.7909 10.3656L27.5774 10.2828V2.80781C27.5774 1.96471 26.9979 1.2797 26.2887 1.2797C25.572 1.2797 24.9925 1.96471 24.9925 2.80781V10.0946H24.1538V1.52811C24.1538 0.685015 23.5743 0 22.8576 0C22.1484 0 21.569 0.685015 21.569 1.52811V10.1397L21.3173 10.1924C21.2563 10.2075 21.1953 10.2225 21.1343 10.2376L20.7302 10.343V3.2143C20.7302 2.37121 20.1507 1.68619 19.434 1.68619C18.7249 1.68619 18.1454 2.37121 18.1454 3.2143V8.39332V11.7958C18.1454 12.1496 18.1759 13.0981 18.214 13.9036L17.6421 14.4681L15.5377 12.0292C15.2479 11.6151 14.7752 11.3743 14.2643 11.3743C13.9517 11.3743 13.6467 11.4721 13.3798 11.6528C13.0443 11.8861 12.8156 12.2324 12.747 12.6389C12.6707 13.0379 12.7622 13.4444 12.9986 13.7756L19.0375 21.0096C19.1595 21.1828 19.8381 21.7624 19.9906 21.8904V32H29.2929V21.6947C30.0936 20.9871 30.5968 19.9934 30.5968 18.9245V18.9019C30.5968 18.8869 30.6959 16.5307 30.6959 14.1068V5.22418C30.6959 4.60692 30.1851 4.10256 29.5598 4.10256Z" fill="#008AC4"/>
<path fill-rule="evenodd" clip-rule="evenodd" d="M29.0184 15.394C29.0184 15.379 29.0184 15.3639 29.0184 15.3488C29.0184 14.1218 27.9738 13.1207 26.7005 13.1207C26.121 13.1207 25.5644 13.3314 25.1374 13.7078C25.0077 13.8207 24.8934 13.9412 24.8019 14.0767C24.7027 13.9412 24.5884 13.8207 24.4587 13.7078C24.0318 13.3314 23.4751 13.1207 22.8956 13.1207C21.6223 13.1207 20.5777 14.1218 20.5777 15.3488C20.5777 15.3639 20.5777 15.379 20.5777 15.394C20.5624 16.1242 20.8751 16.9071 21.485 17.6448C22.1789 18.4879 23.2311 19.2632 24.6112 19.9482L24.8019 20.0461L24.9849 19.9482C26.3726 19.2632 27.4248 18.4879 28.1111 17.6448C28.7211 16.8995 29.0337 16.1242 29.0184 15.394Z" fill="#FEFEFE"/>
<path fill-rule="evenodd" clip-rule="evenodd" d="M43.132 3.13151C42.6593 3.13151 42.278 3.50789 42.278 3.96708V8.01695L41.9425 7.87392C41.8968 7.85134 41.851 7.83628 41.8053 7.82123L41.6452 7.76101V2.16044C41.6452 1.52812 41.2106 1.01624 40.6768 1.01624C40.1431 1.00871 39.7085 1.52812 39.7085 2.16044V7.61798H39.0832V1.19691C39.0832 0.564583 38.6486 0.0527039 38.1149 0.0527039C37.5811 0.0527039 37.1465 0.564583 37.1465 1.19691V7.64809L36.9559 7.68573C36.9101 7.70079 36.8644 7.70831 36.8186 7.72337L36.5136 7.79865V2.46155C36.5136 1.82923 36.079 1.31735 35.5453 1.31735C35.0115 1.31735 34.5769 1.82923 34.5769 2.46155V6.34581V8.89015C34.5769 9.15362 34.6074 9.86875 34.6303 10.471L34.2033 10.8925L32.625 9.06329C32.4115 8.75465 32.0531 8.57399 31.6718 8.57399C31.4355 8.57399 31.2067 8.64927 31.0085 8.78477C30.7569 8.9579 30.5891 9.22137 30.5357 9.52247C30.4824 9.82358 30.551 10.1247 30.7264 10.3731L35.2479 15.793C35.3394 15.921 35.8503 16.3576 35.9646 16.4554V24.3971H42.9338V16.3049C43.5285 15.7779 43.9098 15.0327 43.9098 14.2272V14.2122C43.9098 14.2047 43.9784 12.4357 43.9784 10.6215V3.96708C43.9784 3.50789 43.5971 3.13151 43.132 3.13151Z" fill="#008AC4"/>
<path fill-rule="evenodd" clip-rule="evenodd" d="M42.3466 11.585C42.3466 11.5775 42.3466 11.5625 42.3466 11.5549C42.3466 10.629 41.5689 9.88379 40.6157 9.88379C40.1811 9.88379 39.7618 10.0419 39.4415 10.3279C39.3424 10.4107 39.2585 10.5011 39.1899 10.5989C39.1136 10.5011 39.0298 10.4107 38.9383 10.3279C38.618 10.0419 38.1987 9.88379 37.764 9.88379C36.8109 9.88379 36.0256 10.629 36.0256 11.5549C36.0256 11.5625 36.0256 11.5775 36.0256 11.585C36.018 12.1346 36.2467 12.7217 36.7042 13.2712C37.2227 13.9035 38.0157 14.4832 39.0526 15.0026L39.1899 15.0703L39.3271 15.0026C40.3641 14.4832 41.1571 13.9035 41.6756 13.2712C42.1331 12.7142 42.3618 12.1346 42.3466 11.585Z" fill="#FEFEFE"/>
<path fill-rule="evenodd" clip-rule="evenodd" d="M12.633 3.13151C12.1679 3.13151 11.7866 3.50789 11.7866 3.96708V8.01695L11.4435 7.87392C11.4054 7.85134 11.3597 7.83628 11.3139 7.82123L11.1538 7.76101V2.16044C11.1538 1.52812 10.7192 1.01624 10.1854 1.01624C9.65168 1.00871 9.21706 1.52812 9.21706 2.16044V7.61798H8.5842V1.19691C8.5842 0.564583 8.14958 0.0527039 7.61584 0.0527039C7.0821 0.0527039 6.64748 0.564583 6.64748 1.19691V7.64809L6.45686 7.68573C6.41874 7.70079 6.37299 7.70831 6.32724 7.72337L6.02224 7.79865V2.46155C6.02224 1.82923 5.58763 1.31735 5.05388 1.31735C4.52014 1.31735 4.08553 1.82923 4.08553 2.46155V6.34581V8.89015C4.08553 9.15362 4.1084 9.86875 4.1389 10.471L3.70428 10.8925L2.13356 9.06329C1.91244 8.75465 1.56169 8.57399 1.18045 8.57399C0.944079 8.57399 0.715333 8.64927 0.517086 8.78477C0.265465 8.9579 0.0900934 9.22137 0.0367193 9.52247C-0.0166548 9.82358 0.0519691 10.1247 0.227341 10.3731L4.75651 15.793C4.84801 15.921 5.35125 16.3576 5.47325 16.4554V24.3971H12.4348V16.3049C13.0371 15.7779 13.4107 15.0327 13.4107 14.2272V14.2122C13.4184 14.2047 13.487 12.4357 13.487 10.6215V3.96708C13.487 3.50789 13.1057 3.13151 12.633 3.13151Z" fill="#008AC4"/>
<path fill-rule="evenodd" clip-rule="evenodd" d="M11.8549 11.585C11.8549 11.5775 11.8549 11.5625 11.8549 11.5549C11.8549 10.629 11.0772 9.88379 10.1164 9.88379C9.68945 9.88379 9.27008 10.0419 8.94222 10.3279C8.85072 10.4107 8.76684 10.5011 8.69822 10.5989C8.62197 10.5011 8.5381 10.4107 8.4466 10.3279C8.11873 10.0419 7.70699 9.88379 7.27237 9.88379C6.31163 9.88379 5.5339 10.629 5.5339 11.5549C5.5339 11.5625 5.5339 11.5775 5.5339 11.585C5.51865 12.1346 5.75502 12.7217 6.21251 13.2712C6.731 13.9035 7.51636 14.4832 8.55335 15.0026L8.69822 15.0703L8.83547 15.0026C9.87245 14.4832 10.6578 13.9035 11.1839 13.2712C11.6338 12.7142 11.8702 12.1346 11.8549 11.585Z" fill="#FEFEFE"/>
</g>
<defs>
<clipPath id="clip0">
<rect width="44" height="32" fill="white"/>
</clipPath>
</defs>
</svg>
