<svg width="46" height="32" viewBox="0 0 46 32" fill="none" xmlns="http://www.w3.org/2000/svg">
<g clip-path="url(#clip0)">
<path fill-rule="evenodd" clip-rule="evenodd" d="M35.1095 30.8232C35.5154 29.8677 35.0594 28.7641 34.0938 28.3631L25.6549 24.8563L26.2474 24.2916C26.3253 24.2173 26.4017 24.1408 26.4763 24.0632L26.7339 23.7941L38.4137 28.6476C39.7306 29.1946 41.1771 28.7555 41.6386 27.6688C42.1005 26.5818 41.4048 25.2525 40.0885 24.7055L28.711 19.9778L29.2562 18.6946L42.6322 24.253C43.9488 24.8 45.3955 24.3608 45.8572 23.2739C46.3189 22.1871 45.6233 20.8579 44.3067 20.3109L30.8614 14.7237L30.9402 14.2997C30.959 14.1985 30.9753 14.0979 30.9898 13.9964L31.088 13.3074L42.2205 17.9335C43.5374 18.4805 44.9841 18.0413 45.4458 16.9546C45.9073 15.8681 45.2114 14.5391 43.8948 13.9921L35.8012 10.6287L29.5999 12.7611C29.5519 12.8935 29.3104 13.4762 29.2227 13.5949L26.3152 18.2684C26.1423 18.5023 25.8877 18.656 25.5982 18.7007C25.3085 18.7452 25.0188 18.676 24.7823 18.505C24.5993 18.3729 24.4643 18.1917 24.3913 17.9809C24.2752 17.6451 24.3321 17.2743 24.5431 16.9882L25.4481 15.4464C25.4481 15.4464 23.6207 16.1558 23.1679 16.3093L17.342 18.2813C16.7695 18.475 16.1707 18.2487 16.0073 17.7761C15.8441 17.3036 16.1765 16.7616 16.749 16.5677L21.5892 14.9292L21.4241 14.6835C21.3998 14.6476 21.3763 14.611 21.3534 14.5738L21.2574 14.4176L15.4118 16.3967C14.8394 16.5904 14.2407 16.3638 14.0773 15.8912C13.9136 15.4187 14.2462 14.8765 14.8188 14.683L20.6344 12.7139L20.4413 12.1562L15.4949 13.8306C14.9223 14.0243 14.3236 13.7977 14.1601 13.3252C13.9964 12.8526 14.3293 12.3106 14.9017 12.1167L19.9796 10.3974L19.9847 10.2407C19.986 10.195 19.9886 10.1501 19.992 10.1049L20.0186 9.76089L16.3496 11.0029C15.9297 11.1451 15.471 10.9228 15.3275 10.5077C15.1836 10.0922 15.4083 9.63873 15.8282 9.49658L21.8578 7.45525C23.5052 6.89758 25.1271 6.41937 25.1368 6.41665L25.1388 6.41597C25.1195 6.40916 25.1067 6.40439 25.1067 6.40439L29.1488 5.09126C29.975 4.91505 30.6638 4.34943 30.9916 3.57763C31.1978 3.09239 31.2469 2.56355 31.1342 2.04697C30.9881 1.37826 30.5875 0.806051 30.0063 0.435251C29.4252 0.0639965 28.7328 -0.0604362 28.0567 0.0842055L15.5139 3.80833C15.1716 3.88122 13.8211 4.53358 13.5265 4.6923L6.02517 1.57513L0 15.7595L7.80414 19.0025C8.39599 20.6805 9.61296 22.0927 11.2916 22.7902L11.3254 22.8057C11.3465 22.8161 14.9646 24.4907 18.7537 26.0652L32.622 31.8279C33.5878 32.2292 34.7036 31.7784 35.1095 30.8232Z" fill="#8EAAB6"/>
<path fill-rule="evenodd" clip-rule="evenodd" d="M21.8579 7.45524L15.8283 9.49634C15.4084 9.63849 15.1837 10.0924 15.3276 10.5077C15.4711 10.9228 15.9298 11.1453 16.3497 11.0029L20.0187 9.76088L19.9921 10.1047C19.9887 10.1498 19.9861 10.1953 19.9848 10.2409L19.9797 10.3973L14.9018 12.1165C14.3294 12.3106 13.9966 12.8528 14.1602 13.3251C14.3237 13.7977 14.9224 14.0245 15.4948 13.8308L20.4414 12.1562L20.6345 12.7139L14.8189 14.6828C14.2463 14.8765 13.9137 15.4187 14.0774 15.8912C14.2408 16.3638 14.8395 16.5906 15.4119 16.3967L21.2575 14.4176L21.3535 14.5738C21.3764 14.611 21.3999 14.6476 21.4242 14.6837L21.5893 14.9291L16.7491 16.5677C16.1766 16.7613 15.8439 17.3036 16.0074 17.7761C16.1708 18.2484 16.7696 18.4752 17.3421 18.2813L23.168 16.309C23.6208 16.1558 25.4482 15.4466 25.4482 15.4466L24.5432 16.9882C24.3322 17.2741 24.2753 17.6453 24.3914 17.9809C24.4644 18.1916 24.5994 18.3728 24.7824 18.505C25.0189 18.6757 25.3086 18.7452 25.5983 18.7007C25.8878 18.656 26.1424 18.5025 26.3153 18.2684L29.2231 13.5947C29.3105 13.4761 29.552 12.8935 29.6 12.7613L35.8013 10.6287L30.4949 8.42368C29.5038 8.01201 25.5193 6.55492 25.1389 6.41595L25.1369 6.41664C25.1272 6.41913 23.5053 6.89779 21.8579 7.45524Z" fill="#FEFEFE"/>
</g>
<defs>
<clipPath id="clip0">
<rect width="46" height="32" fill="white"/>
</clipPath>
</defs>
</svg>
