<svg width="34" height="34" viewBox="0 0 34 34" fill="none" xmlns="http://www.w3.org/2000/svg">
<path d="M20.9722 7.7084C21.2441 8.29978 21.4706 8.93985 21.6121 9.61824C26.2458 10.3777 29.5228 12.2475 29.5228 14.4337C29.5228 17.2938 23.9161 19.6122 17.0001 19.6122C10.0841 19.6122 4.4773 17.2938 4.4773 14.4337C4.4773 12.2475 7.7543 10.3777 12.388 9.61824C12.5294 8.93975 12.756 8.29978 13.0279 7.7084C5.55518 8.84951 0 13.138 0 18.2548C0 24.2442 7.61102 29.0997 17 29.0997C26.389 29.0997 34 24.2443 34 18.2548C34 13.138 28.4448 8.84951 20.9722 7.7084Z" fill="#8EAAB6"/>
<path d="M16.9999 17.357C16.9999 17.357 20.2142 14.5691 20.2142 11.1288C20.2142 7.68855 16.9999 4.90027 16.9999 4.90027C16.9999 4.90027 13.7856 7.68845 13.7856 11.1288C13.7856 14.5691 16.9999 17.357 16.9999 17.357Z" fill="#8EAAB6"/>
</svg>
