<svg width="24" height="24" viewBox="0 0 24 24" fill="none" xmlns="http://www.w3.org/2000/svg">
<rect width="24" height="24" rx="12" fill="#414F91"/>
<path d="M14.7741 6.0025L13.335 6C11.7181 6 10.6733 7.15914 10.6733 8.95322V10.3148H9.22632C9.10128 10.3148 9.00003 10.4245 9.00003 10.5597V12.5325C9.00003 12.6677 9.10139 12.7772 9.22632 12.7772H10.6733V17.7553C10.6733 17.8905 10.7745 18 10.8996 18H12.7875C12.9125 18 13.0138 17.8904 13.0138 17.7553V12.7772H14.7056C14.8307 12.7772 14.9319 12.6677 14.9319 12.5325L14.9326 10.5597C14.9326 10.4947 14.9087 10.4326 14.8663 10.3866C14.824 10.3407 14.7662 10.3148 14.7062 10.3148H13.0138V9.16058C13.0138 8.60579 13.136 8.32415 13.8044 8.32415L14.7739 8.32377C14.8988 8.32377 15 8.21416 15 8.07909V6.24718C15 6.11223 14.8989 6.00275 14.7741 6.0025Z" fill="white"/>
</svg>
