<svg width="24" height="24" viewBox="0 0 24 24" fill="none" xmlns="http://www.w3.org/2000/svg">
<rect width="24" height="24" rx="12" fill="#DB5510"/>
<rect width="24" height="24" rx="12" fill="url(#paint0_linear)"/>
<path d="M14.6884 6H9.3115C7.48554 6 6 7.48561 6 9.31157V14.6884C6 16.5145 7.48554 18 9.3115 18H14.6884C16.5145 18 18 16.5144 18 14.6884V9.31157C18.0001 7.48561 16.5145 6 14.6884 6ZM16.9354 14.6884C16.9354 15.9274 15.9274 16.9353 14.6884 16.9353H9.3115C8.07261 16.9354 7.0647 15.9274 7.0647 14.6884V9.31157C7.0647 8.07268 8.07261 7.0647 9.3115 7.0647H14.6884C15.9273 7.0647 16.9353 8.07268 16.9353 9.31157V14.6884H16.9354Z" fill="white"/>
<path d="M12 9C10.3458 9 9 10.3458 9 12.0001C9 13.6543 10.3458 15 12 15C13.6542 15 15 13.6543 15 12.0001C15 10.3458 13.6542 9 12 9ZM12 13.9669C10.9154 13.9669 10.033 13.0846 10.033 12C10.033 10.9153 10.9154 10.0329 12 10.0329C13.0846 10.0329 13.967 10.9153 13.967 12C13.967 13.0846 13.0846 13.9669 12 13.9669Z" fill="white"/>
<path d="M15 8C14.7373 8 14.4792 8.10636 14.2936 8.29273C14.1072 8.47818 14 8.73636 14 9C14 9.26282 14.1073 9.52091 14.2936 9.70727C14.4791 9.89273 14.7373 10 15 10C15.2636 10 15.5209 9.89273 15.7073 9.70727C15.8936 9.52091 16 9.26273 16 9C16 8.73636 15.8936 8.47818 15.7073 8.29273C15.5218 8.10636 15.2636 8 15 8Z" fill="white"/>
<defs>
<linearGradient id="paint0_linear" x1="1.5" y1="24" x2="22.5" y2="-3.29688e-07" gradientUnits="userSpaceOnUse">
<stop offset="0.143564" stop-color="#FE833E"/>
<stop offset="0.505208" stop-color="#E3407D"/>
<stop offset="0.851035" stop-color="#6934C4"/>
</linearGradient>
</defs>
</svg>
