<svg width="24" height="24" viewBox="0 0 24 24" fill="none" xmlns="http://www.w3.org/2000/svg">
<rect width="24" height="24" rx="12" fill="#497BAB"/>
<path d="M18.9258 15.225C18.9088 15.1884 18.893 15.158 18.8783 15.1337C18.6354 14.6955 18.1712 14.1578 17.4861 13.5202L17.4716 13.5056L17.4643 13.4984L17.457 13.4911H17.4497C17.1387 13.1942 16.9418 12.9945 16.8593 12.8923C16.7084 12.6976 16.6746 12.5006 16.7571 12.3009C16.8154 12.15 17.0342 11.8314 17.4131 11.3446C17.6125 11.0867 17.7703 10.8799 17.8869 10.7241C18.7276 9.60465 19.0921 8.8893 18.9803 8.57778L18.9369 8.50498C18.9077 8.46115 18.8324 8.42106 18.711 8.38449C18.5894 8.348 18.434 8.34197 18.2444 8.36628L16.1452 8.38081C16.1111 8.36874 16.0626 8.36986 15.9993 8.38449C15.9361 8.39912 15.9045 8.40646 15.9045 8.40646L15.868 8.42474L15.839 8.4467C15.8147 8.46123 15.788 8.48677 15.7588 8.52329C15.7297 8.55967 15.7055 8.60237 15.6861 8.65104C15.4575 9.23994 15.1977 9.78748 14.906 10.2936C14.7262 10.5954 14.5611 10.857 14.4103 11.0784C14.2597 11.2998 14.1333 11.4629 14.0313 11.5675C13.9292 11.6722 13.837 11.756 13.7543 11.8193C13.6716 11.8827 13.6085 11.9095 13.5649 11.8997C13.5211 11.8899 13.4798 11.8802 13.4408 11.8705C13.3728 11.8266 13.3181 11.767 13.2769 11.6916C13.2355 11.6162 13.2076 11.5212 13.193 11.4068C13.1785 11.2924 13.17 11.194 13.1675 11.1112C13.1652 11.0285 13.1663 10.9116 13.1712 10.7607C13.1763 10.6098 13.1785 10.5076 13.1785 10.4541C13.1785 10.2691 13.1821 10.0684 13.1894 9.85179C13.1967 9.63521 13.2027 9.46361 13.2076 9.33719C13.2126 9.21064 13.2149 9.07676 13.2149 8.93561C13.2149 8.79446 13.2063 8.68377 13.1894 8.60342C13.1726 8.52318 13.1469 8.4453 13.113 8.36979C13.0789 8.29436 13.0291 8.236 12.9636 8.19458C12.898 8.15321 12.8165 8.12037 12.7194 8.09598C12.4618 8.0376 12.1338 8.00602 11.7353 8.00112C10.8315 7.9914 10.2507 8.04985 9.99317 8.1764C9.89112 8.22987 9.79878 8.30292 9.71621 8.39533C9.62872 8.50245 9.61651 8.5609 9.67968 8.57051C9.97129 8.61427 10.1777 8.71892 10.2992 8.88439L10.343 8.97207C10.3771 9.03533 10.4111 9.14733 10.4451 9.30791C10.4791 9.46849 10.501 9.64613 10.5107 9.84072C10.5349 10.1961 10.5349 10.5003 10.5107 10.7533C10.4863 11.0064 10.4634 11.2035 10.4414 11.3447C10.4195 11.4858 10.3867 11.6002 10.343 11.6878C10.2992 11.7754 10.2701 11.8289 10.2555 11.8483C10.2409 11.8678 10.2288 11.88 10.2191 11.8848C10.156 11.9091 10.0903 11.9214 10.0223 11.9214C9.95418 11.9214 9.87162 11.8873 9.77445 11.8191C9.6773 11.751 9.57648 11.6573 9.47198 11.5381C9.36749 11.4188 9.24964 11.2521 9.11838 11.038C8.98723 10.8238 8.85115 10.5708 8.71023 10.2788L8.59363 10.067C8.52074 9.93075 8.42117 9.73238 8.29481 9.47205C8.16839 9.21161 8.05664 8.95969 7.95949 8.71634C7.92066 8.61414 7.86232 8.53633 7.78458 8.48278L7.7481 8.46082C7.72385 8.44138 7.68491 8.42075 7.6315 8.39876C7.57801 8.37679 7.5222 8.36104 7.46384 8.35135L5.4666 8.36588C5.26251 8.36588 5.12403 8.41218 5.05111 8.50467L5.02193 8.54842C5.00735 8.57279 5 8.61171 5 8.66528C5 8.71882 5.01458 8.78454 5.04376 8.86235C5.33532 9.54866 5.65239 10.2105 5.99496 10.8481C6.33753 11.4857 6.63522 11.9993 6.88784 12.3884C7.14052 12.7778 7.39807 13.1453 7.6605 13.4908C7.92293 13.8364 8.09665 14.0578 8.18164 14.1551C8.26673 14.2526 8.33357 14.3255 8.38216 14.3741L8.56442 14.5493C8.68104 14.6661 8.8523 14.8061 9.07828 14.9691C9.3043 15.1322 9.55453 15.2928 9.82908 15.4511C10.1037 15.6091 10.4232 15.7381 10.7877 15.8378C11.1521 15.9377 11.5068 15.9778 11.8519 15.9584H12.6902C12.8602 15.9437 12.989 15.8902 13.0765 15.7978L13.1055 15.7612C13.125 15.7321 13.1433 15.687 13.1601 15.6263C13.1772 15.5654 13.1857 15.4984 13.1857 15.4255C13.1807 15.2163 13.1966 15.0277 13.2329 14.8598C13.2693 14.692 13.3107 14.5654 13.357 14.4802C13.4033 14.395 13.4555 14.3232 13.5136 14.2649C13.5719 14.2066 13.6134 14.1712 13.6378 14.159C13.662 14.1468 13.6813 14.1385 13.6959 14.1335C13.8125 14.0946 13.9498 14.1323 14.1079 14.2467C14.2658 14.3611 14.414 14.5023 14.5525 14.6702C14.691 14.8382 14.8575 15.0267 15.0518 15.2359C15.2463 15.4452 15.4163 15.6008 15.562 15.7032L15.7078 15.7908C15.8051 15.8492 15.9314 15.9028 16.087 15.9514C16.2422 16.0001 16.3782 16.0122 16.495 15.9879L18.361 15.9588C18.5456 15.9588 18.6892 15.9282 18.7911 15.8674C18.8931 15.8066 18.9538 15.7396 18.9733 15.6667C18.9928 15.5937 18.9939 15.5109 18.977 15.4183C18.9597 15.326 18.9427 15.2614 18.9258 15.225Z" fill="white"/>
</svg>
