<svg width="24" height="24" viewBox="0 0 24 24" fill="none" xmlns="http://www.w3.org/2000/svg">
<rect width="24" height="24" rx="12" fill="#E90000"/>
<path fill-rule="evenodd" clip-rule="evenodd" d="M18.7553 15.4948C18.5839 16.2905 17.9748 16.8772 17.242 16.9645C15.5062 17.1717 13.7495 17.1731 11.9995 17.1717C10.2499 17.1731 8.49284 17.1717 6.75652 16.9645C6.02374 16.8772 5.41508 16.2905 5.24414 15.4948C4.99988 14.3616 4.99988 13.125 4.99988 11.9587C4.99988 10.792 5.00253 9.55496 5.24679 8.42222C5.41817 7.62694 6.02639 7.0398 6.75961 6.95202C8.49593 6.74482 10.253 6.74387 12.0026 6.74482C13.7517 6.74387 15.5088 6.74482 17.2447 6.95202C17.9779 7.0398 18.587 7.62647 18.7579 8.42222C19.0022 9.55543 19 10.792 19 11.9587C19 13.125 18.9996 14.3616 18.7553 15.4948ZM10.1934 14.2804C11.681 13.4563 13.1559 12.6393 14.6444 11.8148C13.1515 10.9822 11.6771 10.1605 10.1934 9.33313C10.1934 10.9879 10.1934 12.6261 10.1934 14.2804Z" fill="white"/>
</svg>
