<svg width="18" height="18" viewBox="0 0 18 18" fill="none" xmlns="http://www.w3.org/2000/svg">
<mask id="path-1-inside-1" fill="white">
<path d="M9 2V16V2Z"/>
</mask>
<path d="M11 2C11 0.89543 10.1046 0 9 0C7.89543 0 7 0.89543 7 2H11ZM7 16C7 17.1046 7.89543 18 9 18C10.1046 18 11 17.1046 11 16H7ZM7 2V16H11V2H7Z" fill="#8EAAB6" mask="url(#path-1-inside-1)"/>
<mask id="path-3-inside-2" fill="white">
<path d="M2 9H16H2Z"/>
</mask>
<path d="M2 7C0.89543 7 0 7.89543 0 9C0 10.1046 0.89543 11 2 11V7ZM16 11C17.1046 11 18 10.1046 18 9C18 7.89543 17.1046 7 16 7V11ZM2 11H16V7H2V11Z" fill="#8EAAB6" mask="url(#path-3-inside-2)"/>
</svg>
