<svg width="166" height="113" viewBox="0 0 166 113" fill="none" xmlns="http://www.w3.org/2000/svg">
<path d="M90.5203 48.3529C88.9879 48.6949 87.9177 50.0335 87.9177 51.6078V55.4769C87.9177 56.3089 88.2445 57.0904 88.8372 57.6755C89.4223 58.2543 90.1936 58.5721 91.0117 58.5721H91.0459C100.298 58.4772 107.762 56.4825 113.235 52.645C118.836 48.7164 122.18 42.1586 122.18 35.1017V4.69611C122.18 2.10742 120.072 0 117.484 0H92.6151C90.0251 0 87.9177 2.10742 87.9177 4.69611V26.976C87.9177 29.566 90.0251 31.6734 92.6151 31.6734H107.332V37.0065C107.332 44.3698 92.2402 47.9666 90.5203 48.3529ZM107.499 26.8101H92.781V4.86328H117.317V35.1005C117.317 40.5742 114.747 45.6439 110.443 48.6632C106.131 51.6876 100.195 53.3669 92.781 53.6645V52.8135C98.5979 51.3557 112.195 46.8863 112.195 37.0065V31.5062C112.195 28.9163 110.089 26.8101 107.499 26.8101Z" fill="#2CADF4" fill-opacity="0.1"/>
<path d="M4.69611 112.281H29.5647C32.1546 112.281 34.2608 110.173 34.2608 107.583V85.3035C34.2608 82.7136 32.1546 80.6074 29.5647 80.6074H14.8469V75.273C14.8469 67.911 29.9396 64.3129 31.6595 63.9279C33.1919 63.5847 34.2621 62.246 34.2621 60.6731V56.804C34.2621 55.9719 33.9353 55.1905 33.3426 54.6041C32.7499 54.0177 31.9773 53.6948 31.1339 53.7087C21.8822 53.8037 14.4176 55.7971 8.94514 59.6358C3.34351 63.5632 0 70.1223 0 77.1791V107.583C0 110.173 2.10742 112.281 4.69611 112.281ZM4.86328 77.1791C4.86328 71.7054 7.43297 66.6356 11.7365 63.6176C16.0488 60.592 21.9836 58.9126 29.3988 58.6163V59.4661C23.5818 60.9238 9.98366 65.3932 9.98366 75.273V80.7733C9.98366 83.3633 12.0911 85.4695 14.681 85.4695H29.3988V107.416H4.86328V77.1791Z" fill="#2CADF4" fill-opacity="0.1"/>
<path d="M75.4796 63.9279C77.0121 63.5847 78.0823 62.246 78.0823 60.6731V56.804C78.0823 55.9719 77.7555 55.1905 77.1628 54.6041C76.5701 54.0177 75.7988 53.6948 74.9541 53.7087C65.7024 53.8037 58.2365 55.7971 52.7653 59.6358C47.165 63.5632 43.8202 70.121 43.8202 77.1791V107.583C43.8202 110.173 45.9276 112.281 48.5176 112.281H55.278C56.6205 112.281 57.7097 111.192 57.7097 109.849C57.7097 108.505 56.6205 107.418 55.278 107.418H48.6835V77.1791C48.6835 71.7054 51.2532 66.6356 55.5579 63.6176C59.8703 60.5933 65.8037 58.9126 73.219 58.6163V59.4674C67.402 60.9238 53.8051 65.3932 53.8051 75.273V80.7733C53.8051 83.3633 55.9113 85.4707 58.5012 85.4707H73.219V107.418H66.6257C65.282 107.418 64.194 108.505 64.194 109.849C64.194 111.192 65.282 112.281 66.6257 112.281H73.3862C75.9761 112.281 78.0823 110.173 78.0823 107.583V85.3035C78.0823 82.7136 75.9761 80.6074 73.3862 80.6074H58.6684V75.273C58.6684 67.911 73.7598 64.3129 75.4796 63.9279Z" fill="#2CADF4" fill-opacity="0.1"/>
<path d="M161.304 0H136.435C133.845 0 131.739 2.10742 131.739 4.69611V26.976C131.739 29.566 133.845 31.6734 136.435 31.6734H151.153V37.0065C151.153 44.3698 136.062 47.9666 134.341 48.3529C132.808 48.6961 131.739 50.0348 131.739 51.6078V55.4769C131.739 56.3089 132.065 57.0904 132.657 57.6767C133.243 58.2555 134.014 58.5721 134.833 58.5721H134.866C144.118 58.4772 151.584 56.4837 157.056 52.645C162.656 48.7164 166 42.1586 166 35.1017V22.0861C166 20.7437 164.912 19.6545 163.568 19.6545C162.225 19.6545 161.137 20.7437 161.137 22.0861V35.1017C161.137 40.5755 158.567 45.6452 154.264 48.6632C149.951 51.6876 144.016 53.3682 136.601 53.6645V52.8135C142.418 51.357 156.016 46.8876 156.016 37.0078V31.5062C156.016 28.9175 153.909 26.8101 151.319 26.8101H136.601V4.86328H161.137V10.7372C161.137 12.0809 162.225 13.1689 163.568 13.1689C164.912 13.1689 166 12.0809 166 10.7372V4.69611C166 2.10616 163.894 0 161.304 0Z" fill="#2CADF4" fill-opacity="0.1"/>
</svg>
