<svg width="160" height="83" viewBox="0 0 160 83" fill="none" xmlns="http://www.w3.org/2000/svg">
<path fill-rule="evenodd" clip-rule="evenodd" d="M43.2126 14.3136C28.8477 12.4849 15.7231 22.5859 13.877 36.89C12.9251 44.3388 15.2231 51.4621 19.6845 56.8237C21.4825 55.0716 24.6074 52.0653 25.2035 51.711C26.0593 51.2132 26.7997 50.6579 26.7997 50.6579C26.7997 50.6579 26.4535 48.609 27.0016 46.2249C27.5496 43.8505 28.0785 43.1707 28.1842 42.4239C28.3188 41.3995 28.3958 39.2261 27.9823 38.2782C27.4823 37.1389 27.3477 36.2963 28.1265 35.7315C28.9054 35.1666 30.3765 36.124 31.0399 37.6463C31.6937 39.1686 31.6264 39.7144 31.6264 39.7144C31.6264 39.7144 32.3091 37.0144 33.1072 35.5017C33.9052 33.9985 34.886 31.7773 35.2706 30.8294C35.6455 29.872 36.059 28.8092 37.0878 28.8667C38.1166 28.9241 39.1839 29.5177 38.3089 31.5379C37.4436 33.5581 37.309 34.123 37.1647 34.841C37.0205 35.5495 36.5205 38.3548 36.4051 38.5942C36.2898 38.824 36.5686 38.9006 36.684 38.7857C36.7994 38.6612 38.2705 36.8229 39.1551 35.7793C40.0493 34.7453 41.7223 32.9358 42.0684 32.4953C42.4146 32.0549 43.2222 30.7815 44.2511 30.839C45.2799 30.8964 45.7702 31.7964 45.5876 32.6198C45.4049 33.4528 44.751 34.1708 44.328 34.6591C43.9049 35.1378 42.4338 37.6463 42.1646 38.0485C41.8954 38.441 40.405 40.6718 40.405 40.6718L40.6069 41.0261C40.6069 41.0261 42.3569 39.9729 43.0684 39.5229C43.7703 39.0825 46.751 36.6219 47.4529 36.3634C48.6644 35.9038 50.0105 37.3878 49.1932 38.4506C48.4625 39.4176 47.501 40.1548 47.1548 40.4803C46.7991 40.7963 45.0395 42.5292 44.2991 43.0558C43.5588 43.5728 42.6261 44.8941 42.7799 45.1526C42.9049 45.3633 44.203 45.4686 44.9914 45.2005C46.0972 44.8175 48.9913 44.0611 49.5586 44.2048C50.3566 44.4154 50.847 45.7175 50.0682 46.359C49.2894 47.01 47.7221 47.5558 47.2894 47.7568C46.8664 47.9675 44.0107 49.0111 44.0107 49.0111C44.0107 49.0111 41.8377 50.3036 40.7415 51.3376C40.3762 51.9791 38.7801 54.3248 37.6551 55.0333C37.0301 55.4355 36.4724 55.7227 36.4724 55.7227C36.4724 55.7227 35.4052 58.1546 34.9052 58.729C34.0206 60.395 32.4341 62.6737 30.8957 64.7226C32.6937 65.3736 34.5783 65.8428 36.5494 66.0917C50.9143 67.93 64.0485 57.8195 65.885 43.5154C67.7215 29.2209 57.568 16.1423 43.2126 14.3136Z" fill="#FA873D"/>
<path d="M55.52 3.3989C55.52 3.3989 54.9911 5.31377 54.4527 7.22864C53.8373 9.16266 53.2124 11.0967 53.2124 11.0967V11.1158C52.7701 12.4945 51.2797 13.2605 49.8951 12.8105C48.501 12.3701 47.7414 10.8956 48.1837 9.50733C48.2414 9.31585 48.3375 9.12436 48.4337 8.95202C48.4337 8.95202 49.4432 7.28609 50.4528 5.62015C51.4143 3.87762 52.3758 2.13509 52.3758 2.13509V2.12551C52.8277 1.30212 53.8662 1.00532 54.6931 1.45531C55.4046 1.83828 55.7315 2.6521 55.52 3.3989Z" fill="#FA873D"/>
<path d="M25.7997 76.9682C25.7997 76.9682 26.2324 75.0629 26.665 73.148C27.2131 71.1757 27.7516 69.213 27.7516 69.213C28.1362 67.8055 29.5976 66.9821 31.0015 67.3651C32.4149 67.7481 33.2418 69.1938 32.8572 70.6012C32.8091 70.8023 32.7322 70.9938 32.636 71.1661L32.5303 71.348C32.5303 71.348 31.6264 72.9853 30.7226 74.6225C29.8573 76.3746 28.9919 78.1171 28.9919 78.1171C28.5784 78.9597 27.5496 79.3139 26.7035 78.8926C25.9824 78.5384 25.6266 77.7437 25.7901 76.9969L25.7997 76.9682Z" fill="#FA873D"/>
<path d="M76.702 55.8089C76.702 55.8089 76.2213 55.6844 75.5097 55.5121C75.3367 55.4642 75.1348 55.4163 74.9328 55.3684C74.7309 55.3206 74.5002 55.2344 74.2598 55.1578C73.7886 55.0046 73.2887 54.8419 72.7887 54.6791C72.3271 54.5259 71.8656 54.3631 71.4233 54.2195C70.9907 54.0663 70.606 53.961 70.2695 53.8557C69.5965 53.6546 69.1542 53.5206 69.1542 53.5206L69.0676 53.4919C67.7023 53.0706 66.9331 51.6249 67.3465 50.2653C67.7696 48.8962 69.2215 48.1302 70.5868 48.5515C70.7791 48.609 70.9714 48.6951 71.1349 48.7909C71.1349 48.7909 71.5868 49.0494 72.2502 49.4323C72.5771 49.6334 72.981 49.8536 73.3656 50.093C73.7598 50.3419 74.1732 50.6004 74.5867 50.8589C74.9809 51.0983 75.3655 51.3281 75.7213 51.5483C75.9136 51.6632 76.0674 51.7685 76.2597 51.8642C76.452 51.96 76.6251 52.0557 76.7886 52.1419C77.4424 52.477 77.8751 52.7068 77.8751 52.7068H77.8847C78.702 53.128 79.0289 54.1334 78.5962 54.9567C78.2308 55.6557 77.4328 55.9908 76.702 55.8089Z" fill="#FA873D"/>
<path d="M3.88687 25.3624C3.88687 25.3624 4.31955 25.4486 4.98299 25.5827C5.3099 25.6497 5.69451 25.7358 6.09834 25.8124C6.50217 25.8795 6.93485 25.9656 7.36753 26.0422C7.82906 26.1475 8.29058 26.2433 8.72326 26.339C9.15594 26.4348 9.55978 26.5592 9.90592 26.655C10.5982 26.8465 11.0597 26.9805 11.0597 26.9805C12.4635 27.3731 13.2808 28.8284 12.8866 30.2358C12.4828 31.6336 11.0213 32.4475 9.61747 32.0549C9.39632 31.9879 9.18479 31.9017 9.0021 31.7964L8.90595 31.739C8.90595 31.739 8.55019 31.5283 8.02136 31.2124C7.75214 31.0592 7.44445 30.8581 7.09831 30.6858C6.75217 30.5039 6.37718 30.3124 6.00219 30.1209C5.59835 29.9294 5.18491 29.7379 4.8003 29.556C4.40608 29.3741 4.06955 29.2018 3.77149 29.0486C3.16573 28.7518 2.77152 28.5507 2.77152 28.5507C1.92539 28.1294 1.57924 27.105 2.00231 26.2624C2.35807 25.5635 3.13689 25.2093 3.87725 25.3624H3.88687Z" fill="#FA873D"/>
<path d="M71.9714 16.9945C71.9714 16.9945 71.6349 17.32 71.1349 17.8083C70.6253 18.2966 69.9618 18.9381 69.2888 19.5891C67.8561 20.8529 66.4235 22.1263 66.4235 22.1263C65.337 23.0838 63.6639 22.988 62.6928 21.9061C61.7217 20.8242 61.8275 19.1583 62.914 18.1913C63.0774 18.0476 63.2505 17.9232 63.4428 17.8274L63.462 17.8179C63.462 17.8179 65.0774 16.9849 66.6927 16.1519C67.5004 15.6924 68.308 15.2232 68.9138 14.8785C69.5195 14.5339 69.9234 14.2945 69.9234 14.2945C70.7407 13.8254 71.7887 14.103 72.2599 14.9168C72.6637 15.6062 72.5195 16.4583 71.9714 16.9945Z" fill="#FA873D"/>
<path d="M7.31946 62.329C7.31946 62.329 7.65599 61.9747 8.14636 61.4482C8.27136 61.3141 8.40597 61.1705 8.55019 61.0173C8.69442 60.8641 8.81942 60.7109 8.96364 60.5386C9.24248 60.2131 9.54055 59.8588 9.84823 59.5046C10.1944 59.1216 10.5405 58.7386 10.8674 58.3844C11.1751 58.0205 11.5501 57.7142 11.8289 57.4365C12.4155 56.8908 12.8097 56.5269 12.8097 56.5269C13.877 55.5312 15.5596 55.5887 16.55 56.6514C17.5499 57.7142 17.4922 59.3897 16.425 60.3758C16.2711 60.5194 16.1077 60.6439 15.9346 60.7397L15.7711 60.8258C15.7711 60.8258 15.3961 61.0365 14.8289 61.3524C14.55 61.5248 14.2135 61.6779 13.8673 61.9269C13.5116 62.1662 13.1366 62.4152 12.7616 62.6737C12.3578 62.9609 11.9443 63.2577 11.5597 63.5354C11.377 63.6694 11.1847 63.813 11.0117 63.9279C10.8386 64.0428 10.6751 64.1481 10.5213 64.2439C9.91554 64.646 9.52132 64.9141 9.52132 64.9141C8.73288 65.4311 7.66561 65.2205 7.14639 64.4354C6.7041 63.7652 6.79063 62.9035 7.31946 62.3386V62.329Z" fill="#FA873D"/>
<path d="M64.2985 70.831C64.2985 70.831 62.914 69.4523 61.5294 68.0736C60.1641 66.58 58.7987 65.0864 58.7987 65.0864C57.8084 64.0141 57.8853 62.3481 58.9622 61.3716C60.0391 60.3854 61.7121 60.462 62.6928 61.5343C62.837 61.6875 62.9524 61.8503 63.0582 62.0226L63.1159 62.1375C63.1159 62.1375 64.0293 63.7843 64.9428 65.4311C65.962 67.097 66.9812 68.763 66.9812 68.763C67.4715 69.5576 67.2119 70.6108 66.4043 71.0991C65.7216 71.5108 64.8562 71.3863 64.3082 70.8502L64.2985 70.831Z" fill="#FA873D"/>
<path d="M16.098 8.03288C16.098 8.03288 16.473 8.37756 17.0211 8.90415C17.2999 9.16265 17.6268 9.46903 17.973 9.76584C18.3191 10.0722 18.6845 10.3977 19.0595 10.7233C19.4537 11.0967 19.8383 11.4605 20.2037 11.7956C20.5787 12.1307 20.896 12.5041 21.1844 12.8009C21.7517 13.4137 22.1267 13.8254 22.1267 13.8254C23.1171 14.8977 23.0498 16.5636 21.9729 17.5498C20.896 18.5359 19.2229 18.4593 18.2326 17.3966C18.098 17.2434 17.9826 17.0902 17.8961 16.9274L17.7999 16.7743C17.7999 16.7743 17.5788 16.3721 17.2326 15.7785C17.0595 15.4817 16.8865 15.1275 16.6173 14.7541C16.3673 14.3807 16.098 13.9881 15.8288 13.586C15.5307 13.1552 15.2231 12.7339 14.9442 12.3413C14.6462 11.9392 14.4058 11.5754 14.1942 11.2594C13.7808 10.6275 13.4923 10.1967 13.4923 10.1967C12.9731 9.42116 13.1847 8.36798 13.9731 7.84139C14.6462 7.40097 15.5307 7.49672 16.0884 8.02331L16.098 8.03288Z" fill="#FA873D"/>
<path d="M79.4712 35.3676C79.4712 35.3676 79 35.4825 78.2981 35.6644C78.1251 35.7123 77.9328 35.7602 77.7308 35.8176C77.5385 35.8751 77.2982 35.9134 77.0578 35.9612C76.577 36.0474 76.0674 36.1527 75.5578 36.2485C75.0771 36.3346 74.6059 36.4208 74.1636 36.507C73.7021 36.5836 73.3175 36.6697 72.9714 36.7368C72.2887 36.8804 71.8368 36.9761 71.8368 36.9761L71.7695 36.9857C70.3368 37.2825 68.9426 36.3634 68.6446 34.9464C68.3465 33.5198 69.2695 32.1315 70.7022 31.8347C70.9041 31.7868 71.1253 31.7773 71.3272 31.7773C71.3272 31.7773 71.8272 31.7964 72.5868 31.8251C72.9521 31.8443 73.4137 31.8443 73.856 31.873C74.3079 31.9017 74.7982 31.9304 75.279 31.9592C75.7309 31.9783 76.1732 32.007 76.5963 32.0262C76.8078 32.0358 77.0001 32.0549 77.2116 32.0453C77.4232 32.0358 77.6155 32.0358 77.7981 32.0358C78.5289 32.0262 79.0097 32.0166 79.0097 32.0166C79.9615 31.9975 80.7308 32.7443 80.75 33.6921C80.7596 34.4868 80.2212 35.1666 79.4712 35.3676Z" fill="#FA873D"/>
<path d="M1.19465 44.6739L2.22346 44.3388C2.53115 44.2335 2.90614 44.1186 3.27151 43.975C3.46381 43.9079 3.65611 43.8409 3.84842 43.7739C4.05033 43.6973 4.25225 43.6303 4.44455 43.5537C4.88685 43.4197 5.32914 43.276 5.75221 43.142C6.16565 43.0175 6.55987 42.9314 6.8964 42.8356C7.57907 42.6633 8.03098 42.5484 8.03098 42.5484C9.45402 42.1941 10.8867 43.0463 11.252 44.4633C11.6078 45.8803 10.7521 47.3068 9.32902 47.6707C9.09826 47.7281 8.8675 47.7473 8.64635 47.7473H8.54058C8.54058 47.7473 8.13675 47.7377 7.54061 47.7281C7.24255 47.7281 6.88679 47.6994 6.5118 47.7185C6.12719 47.7377 5.72336 47.7473 5.31953 47.7664C4.87723 47.8047 4.44455 47.8334 4.0311 47.8717C3.60804 47.91 3.23305 47.9196 2.90614 47.9387C2.26192 47.977 1.82925 47.9962 1.82925 47.9962C0.886966 48.0441 0.0792974 47.326 0.0216068 46.3877C-0.0168536 45.6026 0.483131 44.9133 1.19465 44.6739Z" fill="#FA873D"/>
<path d="M46.251 78.165C46.251 78.165 46.1164 77.715 45.9241 77.0543C45.7414 76.3841 45.4818 75.4937 45.2318 74.5937C44.7895 72.7363 44.3472 70.8789 44.3472 70.8789C44.0107 69.4619 44.8856 68.0449 46.3087 67.7098C47.7317 67.3747 49.1547 68.2459 49.4913 69.663C49.5394 69.8736 49.5682 70.0938 49.5586 70.3044V70.3715C49.5586 70.3715 49.5297 72.1619 49.5009 73.9618C49.5201 74.881 49.549 75.8097 49.5682 76.499C49.5874 77.198 49.6067 77.6575 49.6067 77.6575C49.6355 78.5958 48.8855 79.3809 47.9432 79.4096C47.1452 79.4288 46.4625 78.9118 46.251 78.1745V78.165Z" fill="#FA873D"/>
<path d="M34.4148 1.13935C34.4148 1.13935 34.5783 1.57977 34.809 2.23083C34.8667 2.40317 34.934 2.5755 35.0013 2.76699C35.0686 2.96805 35.1552 3.13082 35.2321 3.31273C35.3186 3.49464 35.4052 3.68613 35.4917 3.87761C35.5782 4.07868 35.6648 4.25101 35.7513 4.47122C35.9436 4.94037 36.1263 5.41909 36.2994 5.8595C36.3955 6.07971 36.4628 6.29992 36.5205 6.52013C36.5878 6.74034 36.6359 6.95098 36.6936 7.14247C36.9051 7.91799 37.0397 8.44458 37.0397 8.44458C37.4147 9.85201 36.5782 11.2977 35.1648 11.6711C33.7514 12.0445 32.2995 11.2116 31.9245 9.80414C31.8668 9.5935 31.838 9.38286 31.8284 9.1818V8.94244C31.8284 8.94244 31.8187 8.5499 31.8091 7.95629C31.8091 7.81267 31.8091 7.64991 31.8091 7.47757C31.8091 7.30523 31.7995 7.12332 31.7707 6.92226C31.7226 6.52971 31.6649 6.10844 31.6168 5.68717C31.5303 5.19887 31.4437 4.70101 31.3668 4.24144C31.3284 4.01166 31.2803 3.7723 31.2707 3.58081C31.2514 3.38932 31.2322 3.19784 31.213 3.0255C31.1457 2.32657 31.1072 1.867 31.1072 1.867C31.0111 0.928716 31.7034 0.0957483 32.6456 0.00957918C33.4437 -0.0670156 34.1648 0.411702 34.4148 1.12978V1.13935Z" fill="#FA873D"/>
<path d="M99.2687 33.74C98.6052 38.374 94.7111 39.7718 90.8555 38.5846C90.8651 38.5463 90.8747 38.508 90.8747 38.4601C91.0574 34.8219 91.192 31.1836 91.2497 27.5454C95.5957 26.7316 100.009 28.5986 99.2687 33.74ZM96.8457 18.737C97.461 21.9348 93.9515 23.5146 91.2881 23.8976C91.2978 21.3221 91.2593 18.737 91.1728 16.1519C93.615 15.4721 96.2592 15.7402 96.8457 18.737ZM100.355 26.205C99.6821 25.4965 98.9033 24.9699 98.0668 24.5869C99.7494 23.0072 100.73 20.8338 100.346 18.0859C99.5668 12.5041 93.5669 11.2499 89.0382 13.1169C88.5767 13.2988 88.269 13.6147 88.0863 13.969C87.7498 14.2562 87.5383 14.6966 87.5575 15.2807C87.8363 22.9497 87.6729 30.6283 87.2979 38.2974C86.4614 39.0442 86.2594 40.4612 87.5383 41.0835C90.8747 42.7112 94.4515 43.3814 97.8937 41.6771C100.644 40.3271 102.365 37.2634 102.778 34.3432C103.201 31.3751 102.442 28.4071 100.355 26.205Z" fill="#008AC4"/>
<path d="M110.663 27.2007C112.153 26.1092 115.384 25.6592 114.912 28.3401C114.384 31.3847 111.22 32.1698 108.615 31.4709C108.441 31.423 108.278 31.4134 108.124 31.4134C108.48 29.7283 109.345 28.1581 110.663 27.2007ZM118.249 39.7718C119.835 38.1059 117.307 35.5687 115.711 37.2442C112.989 40.0878 109.288 38.9293 108.22 35.3485C108.182 35.2432 108.163 35.1283 108.134 35.0229C112.672 35.9995 117.566 33.8836 118.432 28.9337C119.326 23.8497 114.374 21.6955 110.153 23.438C105.124 25.5156 103.451 31.94 104.903 36.7751C106.701 42.7973 114.018 44.2047 118.249 39.7718Z" fill="#008AC4"/>
<path d="M125.018 38.2112C124.96 38.2016 124.912 38.1921 124.864 38.1825C124.989 34.3527 124.922 30.523 124.739 26.6837C133.527 23.4571 134.922 41.4569 125.018 38.2112ZM124.076 48.2547C124.354 46.1196 124.547 43.9845 124.681 41.8495C131.239 43.6016 135.931 38.7091 135.518 32.0932C135.325 29.0869 134.075 26.0231 131.633 24.1465C128.826 21.9923 125.364 22.4423 122.335 23.8401C122.037 23.9742 121.826 24.1561 121.672 24.3571C121.307 24.6444 121.066 25.0944 121.105 25.7167C121.508 33.2421 121.451 40.7676 120.489 48.2547C120.191 50.5334 123.787 50.5047 124.076 48.2547Z" fill="#008AC4"/>
<path d="M151.402 38.5559C146.412 40.2793 148.354 28.8188 149.498 26.1284C156.642 24.3763 157.498 36.4495 151.402 38.5559ZM140.912 40.5282C141.027 38.2399 141.181 35.9325 141.277 33.6251C142.421 33.4719 143.575 33.4911 144.729 33.6155C144.864 39.3889 147.171 44.5973 153.786 41.4473C163.017 37.0431 159.44 19.3498 148.171 22.7774C147.806 22.8923 147.527 23.0837 147.335 23.3231C146.998 23.4476 146.71 23.7061 146.498 24.1178C145.767 25.5731 145.19 27.7369 144.912 30.073C143.719 29.9581 142.537 29.939 141.354 30.0347C141.344 28.0911 141.248 26.1571 140.998 24.2231C140.7 21.9731 137.104 21.9444 137.412 24.2231C138.114 29.623 137.594 35.1187 137.316 40.5282C137.2 42.8356 140.787 42.826 140.912 40.5282Z" fill="#008AC4"/>
<path d="M111.566 49.9206C111.393 53.9323 111.143 57.9344 110.999 61.9365C110.941 61.9652 110.874 61.9748 110.816 62.0131C107.538 63.679 105.115 63.6503 104.269 59.7822C103.586 56.6418 104.163 53.0515 104.932 49.9781C105.499 47.7377 102.038 46.7898 101.471 49.0302C100.413 53.2621 99.759 58.2503 101.297 62.4439C102.951 66.9821 107.086 67.2598 110.893 65.8524C110.864 68.0928 110.874 70.3236 110.97 72.5544C111.066 74.8523 114.653 74.8618 114.557 72.5544C114.239 65.0002 114.826 57.4652 115.153 49.9206C115.259 47.6132 111.663 47.6228 111.566 49.9206Z" fill="#008AC4"/>
<path d="M129.316 56.862C129.345 54.5642 125.749 54.5642 125.729 56.862C125.672 61.0843 125.999 65.297 125.893 69.5097C125.874 69.5289 125.854 69.5385 125.835 69.548C124.624 70.5534 123.076 71.281 121.547 70.5151C120.047 69.7587 120.133 67.5374 120.076 66.1396C119.941 63.2003 120.143 60.1556 120.624 57.2546C120.999 55.0046 117.537 54.0376 117.162 56.3067C116.778 58.6046 116.585 60.9216 116.489 63.2481C116.403 65.5077 116.21 68.3704 117.134 70.4863C118.807 74.2873 122.383 74.9671 125.614 73.7033C125.403 75.4746 124.951 77.3033 123.893 78.5192C122.499 80.1277 120.23 79.6394 119.335 77.8969C118.278 75.8384 115.182 77.6479 116.23 79.6968C118.787 84.6755 125.403 83.6415 127.777 79.1128C129.393 76.049 129.441 71.9225 129.518 68.5523C129.604 64.6556 129.268 60.7588 129.316 56.862Z" fill="#008AC4"/>
<path d="M140.508 68.9832C139.883 70.381 138.892 71.1374 137.335 70.8214C135.518 70.448 135.22 67.4896 135.104 66.0534C134.748 61.9173 136.393 57.1014 141.325 59.5333C141.508 59.629 141.69 59.6769 141.864 59.7056C141.854 63.5258 141.21 67.3938 140.508 68.9832ZM133.056 47.9962C131.104 49.2217 132.902 52.3142 134.864 51.0887C139.123 48.427 141.008 51.4813 141.623 55.828C135.768 53.894 131.633 58.2312 131.46 64.4928C131.373 67.3938 131.96 70.3331 133.768 72.6501C135.479 74.8331 138.912 74.9097 141.152 73.6459C143.527 72.2959 144.392 69.1651 144.873 66.7045C145.671 62.6832 145.767 58.3939 145.075 54.3536C144.008 48.0536 138.902 44.3388 133.056 47.9962Z" fill="#008AC4"/>
<path d="M93.7399 69.414C93.038 72.0853 89.9227 71.0799 89.2112 69.031C88.7689 67.7864 88.6151 66.4364 88.6728 65.096C89.1247 65.0864 89.5862 65.0481 90.0285 64.9715C90.1343 64.9811 90.2497 64.9811 90.365 64.9715C93.1726 64.7034 94.4226 66.8385 93.7399 69.414ZM92.0284 58.1833C94.2015 57.5705 92.2015 60.5386 91.49 61.0365C90.8073 61.5152 90.0093 61.7067 89.2016 61.7641C89.2978 61.4577 89.3843 61.1514 89.4901 60.8545C89.9324 59.6195 90.74 58.5376 92.0284 58.1833ZM94.5476 62.7694C95.2687 62.0609 95.8649 61.1801 96.2879 60.146C97.5379 57.0631 94.4995 54.4972 91.6727 54.8993C85.5479 55.7801 84.9613 63.9566 85.7017 68.6768C86.5094 73.8757 92.9707 76.7001 96.2879 71.8267C98.4321 68.6768 97.2591 64.6939 94.5476 62.7694Z" fill="#008AC4"/>
<path d="M154.219 70.2087C152.007 72.4682 150.363 68.3513 150.027 66.7715C149.546 64.4641 149.719 60.3375 151.921 58.8631C152.123 58.729 152.277 58.5663 152.402 58.3939C152.421 58.3939 152.431 58.4035 152.45 58.3939C157.767 58.2886 156.738 67.6332 154.219 70.2087ZM152.45 54.8227C151.844 54.8323 151.392 55.1004 151.104 55.4738C150.796 55.4546 150.45 55.5408 150.113 55.7706C143.556 60.1843 145.979 78.4043 155.536 73.6555C162.44 70.2278 161.228 54.6408 152.45 54.8227Z" fill="#008AC4"/>
</svg>
